<?xml version="1.0" standalone="no"?>
<!DOCTYPE svg PUBLIC "-//W3C//DTD SVG 20010904//EN"
 "http://www.w3.org/TR/2001/REC-SVG-20010904/DTD/svg10.dtd">
<svg version="1.0" xmlns="http://www.w3.org/2000/svg"
 width="452.000000pt" height="452.000000pt" viewBox="0 0 452.000000 452.000000"
 preserveAspectRatio="xMidYMid meet">
<metadata>
Created by potrace 1.16, written by Peter Selinger 2001-2019
</metadata>
<g transform="translate(0.000000,452.000000) scale(0.100000,-0.100000)"
fill="#000000" stroke="none">
<path d="M0 2260 l0 -2260 345 0 345 0 0 2260 0 2260 -345 0 -345 0 0 -2260z"/>
<path d="M1540 3975 c0 -300 4 -545 8 -545 5 0 18 9 30 20 12 11 25 20 29 20
4 0 40 20 78 44 133 84 150 94 188 112 20 10 37 21 37 25 0 4 26 18 58 31 57
23 61 23 542 26 565 3 587 1 686 -72 32 -24 210 -196 394 -382 371 -375 382
-390 400 -525 12 -97 12 -1651 0 -1748 -18 -141 -34 -161 -415 -541 -187 -187
-358 -353 -379 -370 -34 -26 -84 -46 -161 -63 -11 -3 319 -5 733 -6 l752 -1 0
2260 0 2260 -1490 0 -1490 0 0 -545z"/>
<path d="M2206 2835 c-21 -14 -56 -35 -79 -46 -23 -12 -44 -25 -47 -29 -3 -4
-28 -19 -57 -33 -28 -15 -54 -31 -58 -37 -3 -5 -26 -18 -50 -29 -24 -11 -54
-29 -67 -40 -12 -12 -27 -21 -32 -21 -6 0 -38 -18 -71 -40 -33 -22 -65 -40
-71 -40 -5 0 -19 -9 -31 -19 -11 -11 -39 -29 -62 -40 l-41 -21 0 -585 0 -584
33 -17 c17 -9 46 -28 63 -40 17 -13 35 -24 40 -24 5 0 36 -18 69 -40 33 -22
65 -40 71 -40 6 0 17 -7 25 -16 7 -9 38 -29 68 -45 31 -17 81 -45 111 -64 30
-19 78 -46 105 -61 28 -15 52 -30 55 -34 3 -4 19 -15 37 -24 27 -14 72 -16
303 -16 l271 0 179 179 180 180 0 646 0 646 -180 179 -180 180 -274 0 -273 0
-37 -25z"/>
<path d="M1540 140 l0 -140 268 1 c147 1 258 3 247 6 -66 14 -126 35 -138 47
-7 8 -36 26 -63 41 -89 48 -159 90 -199 118 -22 15 -45 27 -51 27 -6 0 -19 9
-29 20 -10 11 -22 20 -27 20 -4 0 -8 -63 -8 -140z"/>
</g>
</svg>
